<svg width="601" height="770" viewBox="0 0 601 770" fill="none" xmlns="http://www.w3.org/2000/svg">
<rect x="44" width="512" height="512" rx="50" fill="#0066FF"/>
<path d="M473.747 105C501.361 105 515.361 125.756 505.017 151.359L420.73 359.976C410.386 385.579 379.614 406.335 352 406.335H266.286C238.672 406.335 224.672 385.579 235.016 359.976L298.9 201.858C303.703 189.97 297.203 180.334 284.382 180.334C271.561 180.334 257.274 189.97 252.472 201.858L187.25 363.287C177.644 387.062 149.071 406.335 123.429 406.335C97.7868 406.335 84.7869 387.062 94.3925 363.287L180.017 151.359C190.361 125.756 221.133 105 248.747 105H473.747Z" fill="white"/>
<path d="M474.345 766.954C473.506 765.2 473.683 763.129 474.808 761.543L509.09 713.19C513.995 706.273 514.004 697.016 509.114 690.089L476.08 643.29C474.96 641.703 474.785 639.634 475.623 637.882C476.515 636.018 478.397 634.832 480.463 634.832H498.984C505.619 634.832 511.823 638.123 515.544 643.617L520.426 650.827C528.359 662.541 545.613 662.541 553.546 650.827L558.428 643.617C562.149 638.123 568.353 634.832 574.988 634.832H593.504C595.573 634.832 597.458 636.02 598.351 637.887C599.188 639.637 599.016 641.703 597.902 643.291L565.033 690.134C560.186 697.041 560.196 706.248 565.058 713.145L599.174 761.542C600.293 763.129 600.467 765.197 599.629 766.949C598.737 768.813 596.855 770 594.788 770H576.182C569.594 770 563.429 766.756 559.698 761.326L553.47 752.262C545.523 740.697 528.449 740.697 520.502 752.262L514.274 761.326C510.543 766.756 504.378 770 497.79 770H479.179C477.115 770 475.235 768.815 474.345 766.954Z" fill="#0066FF"/>
<path d="M428.512 612.56C418.969 612.56 411.232 604.823 411.232 595.28C411.232 585.737 418.969 578 428.512 578H430.816C440.36 578 448.096 585.737 448.096 595.28C448.096 604.823 440.36 612.56 430.816 612.56H428.512ZM429.664 770C419.909 770 412 762.092 412 752.336V652.496C412 642.74 419.909 634.832 429.664 634.832C439.42 634.832 447.328 642.74 447.328 652.496V752.336C447.328 762.092 439.42 770 429.664 770Z" fill="#0066FF"/>
<path d="M302.476 728.528V611.024C302.476 601.268 310.384 593.36 320.14 593.36C329.896 593.36 337.804 601.268 337.804 611.024V614.832C337.804 625.878 346.758 634.832 357.804 634.832H366.476C374.959 634.832 381.836 641.709 381.836 650.192C381.836 658.675 374.959 665.552 366.476 665.552H357.804C346.758 665.552 337.804 674.506 337.804 685.552V731.088C337.804 736.549 340.535 739.28 345.996 739.28H371.596C378.665 739.28 384.396 745.011 384.396 752.08C384.396 756.109 382.499 759.903 379.276 762.32L374.369 766C370.907 768.596 366.697 770 362.369 770H343.948C316.3 770 302.476 756.176 302.476 728.528Z" fill="#0066FF"/>
<path d="M149.952 728.528V676.304C149.952 648.656 163.776 634.832 191.424 634.832H227.264C254.912 634.832 268.736 648.656 268.736 676.304V728.528C268.736 756.176 254.912 770 227.264 770H191.424C163.776 770 149.952 756.176 149.952 728.528ZM185.28 731.088C185.28 736.549 188.011 739.28 193.472 739.28H225.216C230.677 739.28 233.408 736.549 233.408 731.088V673.744C233.408 668.283 230.677 665.552 225.216 665.552H193.472C188.011 665.552 185.28 668.283 185.28 673.744V731.088Z" fill="#0066FF"/>
<path d="M17.664 770C7.90844 770 0 762.092 0 752.336V654.832C0 643.786 8.9543 634.832 20 634.832H74.752C102.4 634.832 116.224 648.656 116.224 676.304V752.336C116.224 762.092 108.316 770 98.56 770C88.8044 770 80.896 762.092 80.896 752.336V673.744C80.896 668.283 78.1653 665.552 72.704 665.552H55.328C44.2823 665.552 35.328 674.506 35.328 685.552V752.336C35.328 762.092 27.4196 770 17.664 770Z" fill="#0066FF"/>
</svg>
